<svg width="22" height="20" viewBox="0 0 22 20" fill="none" xmlns="http://www.w3.org/2000/svg">
<path d="M10.65 19.65C9.4 19.65 8.22917 19.4125 7.1375 18.9375C6.04583 18.4625 5.09583 17.8208 4.2875 17.0125C3.47917 16.2042 2.8375 15.2542 2.3625 14.1625C1.8875 13.0708 1.65 11.9 1.65 10.65C1.65 9.4 1.8875 8.22917 2.3625 7.1375C2.8375 6.04583 3.47917 5.09583 4.2875 4.2875C5.09583 3.47917 6.04583 2.8375 7.1375 2.3625C8.22917 1.8875 9.4 1.65 10.65 1.65C11.9 1.65 13.0708 1.8875 14.1625 2.3625C15.2542 2.8375 16.2042 3.47917 17.0125 4.2875C17.8208 5.09583 18.4625 6.04583 18.9375 7.1375C19.4125 8.22917 19.65 9.4 19.65 10.65C19.65 11.9 19.4125 13.0708 18.9375 14.1625C18.4625 15.2542 17.8208 16.2042 17.0125 17.0125C16.2042 17.8208 15.2542 18.4625 14.1625 18.9375C13.0708 19.4125 11.9 19.65 10.65 19.65ZM4.25 0L5.65 1.4L1.4 5.65L0 4.25L4.25 0ZM17.05 0L21.3 4.25L19.9 5.65L15.65 1.4L17.05 0ZM10.65 17.65C12.6 17.65 14.2542 16.9708 15.6125 15.6125C16.9708 14.2542 17.65 12.6 17.65 10.65C17.65 8.7 16.9708 7.04583 15.6125 5.6875C14.2542 4.32917 12.6 3.65 10.65 3.65C8.7 3.65 7.04583 4.32917 5.6875 5.6875C4.32917 7.04583 3.65 8.7 3.65 10.65C3.65 12.6 4.32917 14.2542 5.6875 15.6125C7.04583 16.9708 8.7 17.65 10.65 17.65Z" fill="white"/>
</svg>
