<svg width="416" height="82" viewBox="0 0 416 82" fill="none" xmlns="http://www.w3.org/2000/svg">
<path d="M1.13574 76.6016L0.652344 67.9326C4.41211 67.9326 7.20508 67.041 9.03125 65.2578C10.8574 63.4746 11.7705 60.7891 11.7705 57.2012V16.6602H21.6963V57.0723C21.6963 61.7129 20.998 65.4619 19.6016 68.3193C18.2266 71.1982 16.0244 73.293 12.9951 74.6035C9.9873 75.9355 6.03418 76.6016 1.13574 76.6016ZM42.9194 65.6445C39.6108 65.6445 36.646 64.9248 34.0249 63.4854C31.4038 62.0244 29.3413 60.0371 27.8374 57.5234C26.355 54.9883 25.6138 52.1094 25.6138 48.8867C25.6138 45.6855 26.355 42.8281 27.8374 40.3145C29.3413 37.7793 31.4038 35.7812 34.0249 34.3203C36.646 32.8594 39.6108 32.1289 42.9194 32.1289C46.228 32.1289 49.1714 32.8594 51.7495 34.3203C54.3491 35.7812 56.3901 37.7793 57.8725 40.3145C59.3764 42.8281 60.1284 45.6855 60.1284 48.8867C60.1284 52.1094 59.3764 54.9883 57.8725 57.5234C56.3901 60.0371 54.3491 62.0244 51.7495 63.4854C49.1714 64.9248 46.228 65.6445 42.9194 65.6445ZM42.8872 57.3623C44.3696 57.3623 45.6909 56.9971 46.8511 56.2666C48.0327 55.5146 48.9565 54.5049 49.6225 53.2373C50.31 51.9482 50.6538 50.4766 50.6538 48.8223C50.6538 47.2324 50.31 45.8037 49.6225 44.5361C48.9565 43.2686 48.0327 42.2695 46.8511 41.5391C45.6909 40.7871 44.3696 40.4111 42.8872 40.4111C41.3833 40.4111 40.0405 40.7871 38.8589 41.5391C37.6987 42.2695 36.7749 43.2686 36.0874 44.5361C35.4214 45.8037 35.0884 47.2324 35.0884 48.8223C35.0884 50.4766 35.4214 51.9482 36.0874 53.2373C36.7749 54.5049 37.6987 55.5146 38.8589 56.2666C40.0405 56.9971 41.3833 57.3623 42.8872 57.3623ZM79.3535 65.6445C76.0449 65.6445 73.08 64.9248 70.4589 63.4854C67.8379 62.0244 65.7754 60.0371 64.2714 57.5234C62.789 54.9883 62.0478 52.1094 62.0478 48.8867C62.0478 45.6855 62.789 42.8281 64.2714 40.3145C65.7754 37.7793 67.8379 35.7812 70.4589 34.3203C73.08 32.8594 76.0449 32.1289 79.3535 32.1289C82.6621 32.1289 85.6054 32.8594 88.1836 34.3203C90.7832 35.7812 92.8242 37.7793 94.3066 40.3145C95.8105 42.8281 96.5625 45.6855 96.5625 48.8867C96.5625 52.1094 95.8105 54.9883 94.3066 57.5234C92.8242 60.0371 90.7832 62.0244 88.1836 63.4854C85.6054 64.9248 82.6621 65.6445 79.3535 65.6445ZM79.3213 57.3623C80.8037 57.3623 82.125 56.9971 83.2851 56.2666C84.4668 55.5146 85.3906 54.5049 86.0566 53.2373C86.7441 51.9482 87.0879 50.4766 87.0879 48.8223C87.0879 47.2324 86.7441 45.8037 86.0566 44.5361C85.3906 43.2686 84.4668 42.2695 83.2851 41.5391C82.125 40.7871 80.8037 40.4111 79.3213 40.4111C77.8173 40.4111 76.4746 40.7871 75.2929 41.5391C74.1328 42.2695 73.2089 43.2686 72.5214 44.5361C71.8554 45.8037 71.5224 47.2324 71.5224 48.8223C71.5224 50.4766 71.8554 51.9482 72.5214 53.2373C73.2089 54.5049 74.1328 55.5146 75.2929 56.2666C76.4746 56.9971 77.8173 57.3623 79.3213 57.3623ZM132.642 65H123.393V48.5C123.393 45.9863 122.791 44.0205 121.588 42.6025C120.407 41.1631 118.785 40.4434 116.722 40.4434C114.574 40.4434 112.866 41.1953 111.598 42.6992C110.352 44.1816 109.729 46.2012 109.729 48.7578V65H100.48V32.7734H107.956L108.279 37.9297C109.439 36.0391 110.954 34.5996 112.823 33.6113C114.692 32.623 116.894 32.1289 119.429 32.1289C123.533 32.1289 126.755 33.3965 129.097 35.9316C131.46 38.4453 132.642 41.9258 132.642 46.373V65ZM151.061 65.3867C148.161 65.3867 145.561 64.667 143.263 63.2275C140.964 61.7666 139.159 59.79 137.849 57.2979C136.538 54.7842 135.883 51.9375 135.883 48.7578C135.883 45.5566 136.538 42.71 137.849 40.2178C139.159 37.7256 140.964 35.7598 143.263 34.3203C145.561 32.8594 148.172 32.1289 151.094 32.1289C153.371 32.1289 155.455 32.5801 157.346 33.4824C159.258 34.3633 160.901 35.5879 162.276 37.1562L162.695 32.7734H170.816V64.0977C170.816 67.6641 170.032 70.7686 168.464 73.4111C166.917 76.0752 164.726 78.127 161.89 79.5664C159.054 81.0273 155.734 81.7578 151.932 81.7578C146.646 81.7578 141.855 80.1035 137.559 76.7949L141.297 69.2539C144.154 72.0684 147.484 73.4756 151.287 73.4756C153.328 73.4756 155.111 73.0674 156.637 72.251C158.184 71.4346 159.387 70.2959 160.246 68.835C161.127 67.374 161.567 65.6768 161.567 63.7432V61.1006C160.235 62.4326 158.678 63.4854 156.894 64.2588C155.111 65.0107 153.167 65.3867 151.061 65.3867ZM153.446 57.1367C154.95 57.1367 156.314 56.8145 157.539 56.1699C158.764 55.5039 159.741 54.5908 160.472 53.4307C161.202 52.249 161.567 50.917 161.567 49.4346V48.0488C161.567 46.5664 161.191 45.2451 160.439 44.085C159.709 42.9248 158.731 42.0225 157.507 41.3779C156.304 40.7119 154.95 40.3789 153.446 40.3789C151.899 40.3789 150.514 40.7441 149.289 41.4746C148.064 42.2051 147.098 43.2041 146.389 44.4717C145.68 45.7178 145.325 47.1465 145.325 48.7578C145.325 50.3691 145.68 51.8086 146.389 53.0762C147.098 54.3438 148.064 55.3428 149.289 56.0732C150.514 56.7822 151.899 57.1367 153.446 57.1367Z" fill="#222222"/>
<path d="M212.028 30.6143C210.868 29.4111 209.45 28.4766 207.774 27.8105C206.099 27.1445 204.294 26.8115 202.36 26.8115C200.491 26.8115 198.794 27.1338 197.269 27.7783C195.765 28.4014 194.465 29.3145 193.369 30.5176C192.295 31.7207 191.457 33.1602 190.855 34.8359C190.275 36.5117 189.985 38.4023 189.985 40.5078C189.985 42.6562 190.297 44.6113 190.92 46.373C191.543 48.1348 192.435 49.6494 193.595 50.917C194.755 52.1631 196.13 53.1299 197.72 53.8174C199.331 54.5049 201.114 54.8486 203.069 54.8486C204.53 54.8486 205.862 54.6553 207.065 54.2686C208.269 53.8818 209.332 53.3125 210.256 52.5605C211.18 51.8086 211.964 50.8848 212.608 49.7891C213.253 48.6719 213.747 47.4043 214.091 45.9863H202.521V36.3184H225.306L225.66 41.1846C225.66 44.8584 225.102 48.2207 223.984 51.2715C222.889 54.3008 221.32 56.9111 219.279 59.1025C217.238 61.2939 214.8 62.9912 211.964 64.1943C209.149 65.376 206.013 65.9668 202.554 65.9668C198.944 65.9668 195.582 65.333 192.467 64.0654C189.373 62.7764 186.655 60.9932 184.313 58.7158C181.993 56.417 180.178 53.7314 178.867 50.6592C177.578 47.5869 176.934 44.2676 176.934 40.7012C176.934 37.1777 177.567 33.9014 178.835 30.8721C180.103 27.8428 181.875 25.1895 184.152 22.9121C186.43 20.6348 189.083 18.8623 192.112 17.5947C195.163 16.3271 198.461 15.6934 202.006 15.6934C205.336 15.6934 208.58 16.2734 211.738 17.4336C214.896 18.5938 217.732 20.248 220.246 22.3965L212.028 30.6143Z" fill="#0DCC5A"/>
<path d="M239.667 54.9999C250.556 65.8896 265.67 59.2769 265.67 45.5686H260.667L272.333 31.5686L284 45.5686H279C276.375 64.1886 249.947 71.4779 239.667 54.9999ZM272.333 27.0373C261.444 16.1476 246.33 22.7579 246.33 36.4663H251.333L239.667 50.4663L228 36.4663H233C235.625 17.8486 262.053 10.5569 272.333 27.0373Z" fill="#0DCC5A"/>
<path d="M320.094 65H310.845V48.5C310.845 45.9863 310.243 44.0205 309.04 42.6025C307.858 41.1631 306.236 40.4434 304.174 40.4434C302.025 40.4434 300.317 41.1953 299.05 42.6992C297.804 44.1816 297.181 46.2012 297.181 48.7578V65H287.932V32.7734H295.408L295.73 37.9297C296.891 36.0391 298.405 34.5996 300.274 33.6113C302.144 32.623 304.346 32.1289 306.881 32.1289C310.984 32.1289 314.207 33.3965 316.549 35.9316C318.912 38.4453 320.094 41.9258 320.094 46.373V65ZM354.079 65H346.022L345.539 61.165C344.357 62.583 342.896 63.6895 341.156 64.4844C339.416 65.2578 337.503 65.6445 335.419 65.6445C333.164 65.6445 331.155 65.2148 329.393 64.3555C327.631 63.4746 326.246 62.2715 325.236 60.7461C324.226 59.1992 323.721 57.4482 323.721 55.4932C323.721 53.4307 324.269 51.6152 325.365 50.0469C326.46 48.4785 327.964 47.2539 329.876 46.373C331.81 45.4707 334.001 45.0195 336.451 45.0195C337.89 45.0195 339.33 45.1807 340.769 45.5029C342.23 45.8252 343.583 46.2764 344.83 46.8564V46.0186C344.83 44.7295 344.464 43.623 343.734 42.6992C343.025 41.7539 342.037 41.0234 340.769 40.5078C339.523 39.9922 338.126 39.7344 336.58 39.7344C335.097 39.7344 333.625 39.9707 332.165 40.4434C330.725 40.916 329.393 41.625 328.168 42.5703L325.655 35.5127C327.825 34.3955 330.016 33.5576 332.229 32.999C334.463 32.4189 336.623 32.1289 338.707 32.1289C341.843 32.1289 344.561 32.752 346.86 33.998C349.159 35.2227 350.931 36.9629 352.177 39.2188C353.445 41.4531 354.079 44.1064 354.079 47.1787V65ZM337.45 58.5225C338.674 58.5225 339.845 58.2539 340.962 57.7168C342.08 57.1797 342.982 56.4492 343.669 55.5254C344.378 54.6016 344.754 53.5811 344.797 52.4639V52.2383C343.852 51.5938 342.799 51.0996 341.639 50.7559C340.5 50.3906 339.34 50.208 338.159 50.208C336.397 50.208 334.958 50.5947 333.84 51.3682C332.723 52.1416 332.165 53.1406 332.165 54.3652C332.165 55.1602 332.39 55.8799 332.841 56.5244C333.314 57.1475 333.948 57.6416 334.743 58.0068C335.538 58.3506 336.44 58.5225 337.45 58.5225ZM368.566 65H359.317V32.7734H367.374L367.696 38.3486C368.77 36.3936 370.231 34.8682 372.079 33.7725C373.927 32.6768 376.043 32.1289 378.428 32.1289C379.115 32.1289 379.803 32.1826 380.49 32.29C381.199 32.376 381.919 32.5156 382.649 32.709L381.489 41.0234C380.071 40.6152 378.728 40.4111 377.461 40.4111C375.678 40.4111 374.109 40.8193 372.756 41.6357C371.424 42.4307 370.393 43.5479 369.662 44.9873C368.932 46.4053 368.566 48.0703 368.566 49.9824V65ZM412.703 65H404.646L404.163 61.165C402.981 62.583 401.52 63.6895 399.78 64.4844C398.039 65.2578 396.127 65.6445 394.043 65.6445C391.788 65.6445 389.779 65.2148 388.017 64.3555C386.255 63.4746 384.87 62.2715 383.86 60.7461C382.85 59.1992 382.345 57.4482 382.345 55.4932C382.345 53.4307 382.893 51.6152 383.989 50.0469C385.084 48.4785 386.588 47.2539 388.5 46.373C390.434 45.4707 392.625 45.0195 395.075 45.0195C396.514 45.0195 397.954 45.1807 399.393 45.5029C400.854 45.8252 402.207 46.2764 403.454 46.8564V46.0186C403.454 44.7295 403.088 43.623 402.358 42.6992C401.649 41.7539 400.661 41.0234 399.393 40.5078C398.147 39.9922 396.75 39.7344 395.204 39.7344C393.721 39.7344 392.249 39.9707 390.789 40.4434C389.349 40.916 388.017 41.625 386.792 42.5703L384.279 35.5127C386.449 34.3955 388.64 33.5576 390.853 32.999C393.087 32.4189 395.247 32.1289 397.331 32.1289C400.467 32.1289 403.185 32.752 405.484 33.998C407.783 35.2227 409.555 36.9629 410.801 39.2188C412.069 41.4531 412.703 44.1064 412.703 47.1787V65ZM396.074 58.5225C397.298 58.5225 398.469 58.2539 399.586 57.7168C400.704 57.1797 401.606 56.4492 402.293 55.5254C403.002 54.6016 403.378 53.5811 403.421 52.4639V52.2383C402.476 51.5938 401.423 51.0996 400.263 50.7559C399.124 50.3906 397.964 50.208 396.783 50.208C395.021 50.208 393.581 50.5947 392.464 51.3682C391.347 52.1416 390.789 53.1406 390.789 54.3652C390.789 55.1602 391.014 55.8799 391.465 56.5244C391.938 57.1475 392.572 57.6416 393.367 58.0068C394.162 58.3506 395.064 58.5225 396.074 58.5225Z" fill="#222222"/>
</svg>
