<svg width="22" height="20" viewBox="0 0 22 20" fill="none" xmlns="http://www.w3.org/2000/svg">
<path d="M10.9996 20C9.74961 20 8.57878 19.7625 7.48711 19.2875C6.39544 18.8125 5.44544 18.1708 4.63711 17.3625C3.82878 16.5541 3.18711 15.6041 2.71211 14.5125C2.23711 13.4208 1.99961 12.25 1.99961 11C1.99961 9.74998 2.23711 8.57914 2.71211 7.48748C3.18711 6.39581 3.82878 5.44581 4.63711 4.63748C5.44544 3.82914 6.39544 3.18748 7.48711 2.71248C8.57878 2.23748 9.74961 1.99998 10.9996 1.99998C12.2496 1.99998 13.4204 2.23748 14.5121 2.71248C15.6038 3.18748 16.5538 3.82914 17.3621 4.63748C18.1704 5.44581 18.8121 6.39581 19.2871 7.48748C19.7621 8.57914 19.9996 9.74998 19.9996 11C19.9996 12.25 19.7621 13.4208 19.2871 14.5125C18.8121 15.6041 18.1704 16.5541 17.3621 17.3625C16.5538 18.1708 15.6038 18.8125 14.5121 19.2875C13.4204 19.7625 12.2496 20 10.9996 20ZM4.59961 0.349976L5.99961 1.74998L1.74961 5.99998L0.349609 4.59998L4.59961 0.349976ZM17.3996 0.349976L21.6496 4.59998L20.2496 5.99998L15.9996 1.74998L17.3996 0.349976ZM10.9996 18C12.9496 18 14.6038 17.3208 15.9621 15.9625C17.3204 14.6041 17.9996 12.95 17.9996 11C17.9996 9.04998 17.3204 7.39581 15.9621 6.03748C14.6038 4.67914 12.9496 3.99998 10.9996 3.99998C9.04961 3.99998 7.39544 4.67914 6.03711 6.03748C4.67878 7.39581 3.99961 9.04998 3.99961 11C3.99961 12.95 4.67878 14.6041 6.03711 15.9625C7.39544 17.3208 9.04961 18 10.9996 18Z" fill="white"/>
</svg>
