<svg width="54" height="27" viewBox="0 0 54 27" fill="none" xmlns="http://www.w3.org/2000/svg">
<path d="M37.1915 2.99365H13.931V20.4028H37.1915V2.99365Z" fill="#0DCC5A"/>
<path d="M39.5868 23.397H26.7176C26.387 23.397 26.1188 23.1293 26.1188 22.7981C26.1188 22.467 26.387 22.1993 26.7176 22.1993H38.988V1.1977H12.1345V3.30384C12.1345 3.63441 11.8662 3.90269 11.5356 3.90269C11.205 3.90269 10.9368 3.63441 10.9368 3.30384V0.598848C10.9368 0.268284 11.205 0 11.5356 0H39.5868C39.918 0 40.1857 0.268284 40.1857 0.598848V22.7981C40.1857 23.1287 39.918 23.397 39.5868 23.397Z" fill="black"/>
<path d="M16.5779 23.397H11.5356C11.205 23.397 10.9368 23.1293 10.9368 22.7982V19.7818C10.9368 19.4506 11.205 19.1829 11.5356 19.1829C11.8662 19.1829 12.1345 19.4506 12.1345 19.7818V22.1993H16.5779C16.9085 22.1993 17.1768 22.467 17.1768 22.7982C17.1768 23.1293 16.9085 23.397 16.5779 23.397Z" fill="black"/>
<path d="M53.2975 23.397C52.9681 23.397 52.701 23.1317 52.6986 22.8023L52.6417 14.3364L46.5023 7.89222H40.1857V22.1993H43.5902C43.9213 22.1993 44.189 22.467 44.189 22.7981C44.189 23.1293 43.9213 23.397 43.5902 23.397H39.5869C39.2557 23.397 38.988 23.1293 38.988 22.7981V7.29337C38.988 6.9628 39.2557 6.69452 39.5869 6.69452H46.7593C46.9227 6.69452 47.0796 6.76159 47.1928 6.88016L53.6724 13.6819C53.7778 13.7927 53.8364 13.9388 53.8376 14.0909L53.8963 22.7939C53.8987 23.1251 53.6322 23.3946 53.3017 23.397C53.3005 23.397 53.2987 23.397 53.2975 23.397Z" fill="black"/>
<path d="M48.442 14.6933H43.3728C43.0416 14.6933 42.7739 14.4256 42.7739 14.0945V7.29337C42.7739 6.9628 43.0416 6.69452 43.3728 6.69452C43.7039 6.69452 43.9716 6.9628 43.9716 7.29337V13.4962H48.442C48.7732 13.4962 49.0409 13.7645 49.0409 14.0951C49.0409 14.4256 48.7726 14.6933 48.442 14.6933Z" fill="black"/>
<path d="M19.747 26.5655C17.6696 26.5655 15.9791 24.8755 15.9791 22.7981C15.9791 20.7207 17.669 19.0308 19.747 19.0308C21.8244 19.0308 23.5144 20.7207 23.5144 22.7981C23.5144 24.8755 21.8238 26.5655 19.747 26.5655ZM19.747 20.2285C18.3301 20.2285 17.1768 21.3813 17.1768 22.7981C17.1768 24.215 18.3295 25.3678 19.747 25.3678C21.1645 25.3678 22.3167 24.215 22.3167 22.7981C22.3167 21.3813 21.1639 20.2285 19.747 20.2285Z" fill="black"/>
<path d="M46.7593 26.5655C44.6813 26.5655 42.9913 24.8755 42.9913 22.7981C42.9913 20.7207 44.6813 19.0308 46.7593 19.0308C48.8367 19.0308 50.5266 20.7207 50.5266 22.7981C50.5266 24.8755 48.8367 26.5655 46.7593 26.5655ZM46.7593 20.2285C45.3424 20.2285 44.189 21.3813 44.189 22.7981C44.189 24.215 45.3424 25.3678 46.7593 25.3678C48.1761 25.3678 49.3289 24.215 49.3289 22.7981C49.3289 21.3813 48.1761 20.2285 46.7593 20.2285Z" fill="black"/>
<path d="M25.5612 12.2968H0.598848C0.268284 12.2968 0 12.0285 0 11.6979C0 11.3673 0.268284 11.0991 0.598848 11.0991H25.5612C25.8918 11.0991 26.1601 11.3673 26.1601 11.6979C26.1601 12.0285 25.8918 12.2968 25.5612 12.2968Z" fill="black"/>
<path d="M25.5612 7.2269H6.93646C6.6059 7.2269 6.33762 6.95862 6.33762 6.62805C6.33762 6.29749 6.6059 6.02921 6.93646 6.02921H25.5618C25.8924 6.02921 26.1607 6.29749 26.1607 6.62805C26.1607 6.95862 25.8918 7.2269 25.5612 7.2269Z" fill="black"/>
<path d="M25.5612 17.3666H6.93646C6.6059 17.3666 6.33762 17.0989 6.33762 16.7677C6.33762 16.4366 6.6059 16.1689 6.93646 16.1689H25.5618C25.8924 16.1689 26.1607 16.4366 26.1607 16.7677C26.1607 17.0989 25.8918 17.3666 25.5612 17.3666Z" fill="black"/>
</svg>
